<svg xmlns="http://www.w3.org/2000/svg" viewBox="0 0 24 24" fill="#3B82F6">
  <path d="M12 2c5.514 0 10 4.486 10 10s-4.486 10-10 10S2 17.514 2 12 6.486 2 12 2zm0 18c4.411 0 8-3.589 8-8s-3.589-8-8-8-8 3.589-8 8 3.589 8 8 8zm-.523-7.965A5.567 5.567 0 0 1 12 11.965c1.395 0 2.673.515 3.647 1.37a.998.998 0 0 0 .879.22.999.999 0 0 0 .707-.707.997.997 0 0 0-.22-.88 7.566 7.566 0 0 0-5.013-1.906 7.565 7.565 0 0 0-5.013 1.906.998.998 0 0 0-.22.879.999.999 0 0 0 .707.707.998.998 0 0 0 .879-.22 5.565 5.565 0 0 1 3.647-1.369zm-4.31-4.874a.997.997 0 0 0 1.414 0 .999.999 0 0 0 0-1.414 7.571 7.571 0 0 0-10.498 0 .999.999 0 0 0 0 1.414.997.997 0 0 0 1.414 0 5.572 5.572 0 0 1 7.67 0zm8.62 0a.997.997 0 0 0 1.414 0 .999.999 0 0 0 0-1.414 7.571 7.571 0 0 0-10.498 0 .999.999 0 0 0 0 1.414.997.997 0 0 0 1.414 0 5.572 5.572 0 0 1 7.67 0z"/>
</svg>